<mxfile host="app.diagrams.net" agent="Mozilla/5.0 (Windows NT 10.0; Win64; x64) AppleWebKit/537.36 (KHTML, like Gecko) Chrome/128.0.0.0 Safari/537.36" version="24.7.10">
  <diagram name="Page-1" id="3hVJhsVG7dCaKuXtZg8c">
    <mxGraphModel dx="2580" dy="1044" grid="1" gridSize="10" guides="1" tooltips="1" connect="1" arrows="1" fold="1" page="1" pageScale="1" pageWidth="1400" pageHeight="850" math="0" shadow="0">
      <root>
        <mxCell id="0" />
        <mxCell id="1" parent="0" />
        <mxCell id="kr1hZEKx9nepapMAvcio-3" style="edgeStyle=orthogonalEdgeStyle;rounded=0;orthogonalLoop=1;jettySize=auto;html=1;exitX=0.5;exitY=1;exitDx=0;exitDy=0;entryX=0.5;entryY=0;entryDx=0;entryDy=0;" edge="1" parent="1" source="kr1hZEKx9nepapMAvcio-1" target="kr1hZEKx9nepapMAvcio-2">
          <mxGeometry relative="1" as="geometry" />
        </mxCell>
        <mxCell id="kr1hZEKx9nepapMAvcio-1" value="&lt;font style=&quot;font-size: 24px;&quot;&gt;start&lt;/font&gt;" style="ellipse;whiteSpace=wrap;html=1;" vertex="1" parent="1">
          <mxGeometry x="600" y="40" width="120" height="80" as="geometry" />
        </mxCell>
        <mxCell id="kr1hZEKx9nepapMAvcio-5" style="edgeStyle=orthogonalEdgeStyle;rounded=0;orthogonalLoop=1;jettySize=auto;html=1;exitX=0.5;exitY=1;exitDx=0;exitDy=0;entryX=0.5;entryY=0;entryDx=0;entryDy=0;" edge="1" parent="1" source="kr1hZEKx9nepapMAvcio-2" target="kr1hZEKx9nepapMAvcio-4">
          <mxGeometry relative="1" as="geometry" />
        </mxCell>
        <mxCell id="kr1hZEKx9nepapMAvcio-2" value="&lt;font style=&quot;font-size: 24px;&quot;&gt;Inputs marks for each Subjects&lt;/font&gt;" style="rounded=0;whiteSpace=wrap;html=1;" vertex="1" parent="1">
          <mxGeometry x="545" y="160" width="230" height="60" as="geometry" />
        </mxCell>
        <mxCell id="kr1hZEKx9nepapMAvcio-6" style="edgeStyle=orthogonalEdgeStyle;rounded=0;orthogonalLoop=1;jettySize=auto;html=1;entryX=1;entryY=0.5;entryDx=0;entryDy=0;" edge="1" parent="1" source="kr1hZEKx9nepapMAvcio-4" target="kr1hZEKx9nepapMAvcio-2">
          <mxGeometry relative="1" as="geometry">
            <Array as="points">
              <mxPoint x="830" y="355" />
              <mxPoint x="830" y="190" />
            </Array>
          </mxGeometry>
        </mxCell>
        <mxCell id="kr1hZEKx9nepapMAvcio-8" style="edgeStyle=orthogonalEdgeStyle;rounded=0;orthogonalLoop=1;jettySize=auto;html=1;exitX=0.5;exitY=1;exitDx=0;exitDy=0;entryX=0.5;entryY=0;entryDx=0;entryDy=0;" edge="1" parent="1" source="kr1hZEKx9nepapMAvcio-4" target="kr1hZEKx9nepapMAvcio-7">
          <mxGeometry relative="1" as="geometry" />
        </mxCell>
        <mxCell id="kr1hZEKx9nepapMAvcio-9" value="&lt;font style=&quot;font-size: 18px;&quot;&gt;Valid&lt;/font&gt;" style="edgeLabel;html=1;align=center;verticalAlign=middle;resizable=0;points=[];" vertex="1" connectable="0" parent="kr1hZEKx9nepapMAvcio-8">
          <mxGeometry x="0.0844" y="-2" relative="1" as="geometry">
            <mxPoint as="offset" />
          </mxGeometry>
        </mxCell>
        <mxCell id="kr1hZEKx9nepapMAvcio-4" value="&lt;font style=&quot;font-size: 24px;&quot;&gt;Validation&lt;/font&gt;" style="rhombus;whiteSpace=wrap;html=1;" vertex="1" parent="1">
          <mxGeometry x="580" y="280" width="160" height="150" as="geometry" />
        </mxCell>
        <mxCell id="kr1hZEKx9nepapMAvcio-11" style="edgeStyle=orthogonalEdgeStyle;rounded=0;orthogonalLoop=1;jettySize=auto;html=1;exitX=0.5;exitY=1;exitDx=0;exitDy=0;entryX=0.5;entryY=0;entryDx=0;entryDy=0;" edge="1" parent="1" source="kr1hZEKx9nepapMAvcio-7" target="kr1hZEKx9nepapMAvcio-10">
          <mxGeometry relative="1" as="geometry" />
        </mxCell>
        <mxCell id="kr1hZEKx9nepapMAvcio-7" value="&lt;font style=&quot;font-size: 18px;&quot;&gt;Total Marks of student.&lt;/font&gt;&lt;div&gt;&lt;font size=&quot;3&quot;&gt;Calculate the failed subjects.&lt;/font&gt;&lt;/div&gt;" style="rounded=0;whiteSpace=wrap;html=1;" vertex="1" parent="1">
          <mxGeometry x="525" y="520" width="270" height="60" as="geometry" />
        </mxCell>
        <mxCell id="kr1hZEKx9nepapMAvcio-13" style="edgeStyle=orthogonalEdgeStyle;rounded=0;orthogonalLoop=1;jettySize=auto;html=1;exitX=0.5;exitY=1;exitDx=0;exitDy=0;entryX=0.5;entryY=0;entryDx=0;entryDy=0;" edge="1" parent="1" source="kr1hZEKx9nepapMAvcio-10" target="kr1hZEKx9nepapMAvcio-12">
          <mxGeometry relative="1" as="geometry" />
        </mxCell>
        <mxCell id="kr1hZEKx9nepapMAvcio-14" value="&lt;font style=&quot;font-size: 18px;&quot;&gt;One Fail in Subjects&lt;/font&gt;" style="edgeLabel;html=1;align=center;verticalAlign=middle;resizable=0;points=[];" vertex="1" connectable="0" parent="kr1hZEKx9nepapMAvcio-13">
          <mxGeometry x="-0.0571" y="2" relative="1" as="geometry">
            <mxPoint y="1" as="offset" />
          </mxGeometry>
        </mxCell>
        <mxCell id="kr1hZEKx9nepapMAvcio-16" style="edgeStyle=orthogonalEdgeStyle;rounded=0;orthogonalLoop=1;jettySize=auto;html=1;entryX=0.5;entryY=0;entryDx=0;entryDy=0;" edge="1" parent="1" source="kr1hZEKx9nepapMAvcio-10" target="kr1hZEKx9nepapMAvcio-15">
          <mxGeometry relative="1" as="geometry" />
        </mxCell>
        <mxCell id="kr1hZEKx9nepapMAvcio-19" value="&lt;font style=&quot;font-size: 18px;&quot;&gt;No Fail Subjeects&lt;/font&gt;" style="edgeLabel;html=1;align=center;verticalAlign=middle;resizable=0;points=[];" vertex="1" connectable="0" parent="kr1hZEKx9nepapMAvcio-16">
          <mxGeometry x="0.5156" y="4" relative="1" as="geometry">
            <mxPoint as="offset" />
          </mxGeometry>
        </mxCell>
        <mxCell id="kr1hZEKx9nepapMAvcio-18" style="edgeStyle=orthogonalEdgeStyle;rounded=0;orthogonalLoop=1;jettySize=auto;html=1;entryX=0.5;entryY=0;entryDx=0;entryDy=0;" edge="1" parent="1" source="kr1hZEKx9nepapMAvcio-10" target="kr1hZEKx9nepapMAvcio-17">
          <mxGeometry relative="1" as="geometry" />
        </mxCell>
        <mxCell id="kr1hZEKx9nepapMAvcio-20" value="&lt;font style=&quot;font-size: 18px;&quot;&gt;More than one failed in subject&lt;/font&gt;" style="edgeLabel;html=1;align=center;verticalAlign=middle;resizable=0;points=[];" vertex="1" connectable="0" parent="kr1hZEKx9nepapMAvcio-18">
          <mxGeometry x="0.5565" relative="1" as="geometry">
            <mxPoint y="1" as="offset" />
          </mxGeometry>
        </mxCell>
        <mxCell id="kr1hZEKx9nepapMAvcio-10" value="&lt;font style=&quot;font-size: 24px;&quot;&gt;Check Result&lt;/font&gt;" style="rhombus;whiteSpace=wrap;html=1;" vertex="1" parent="1">
          <mxGeometry x="575" y="640" width="170" height="160" as="geometry" />
        </mxCell>
        <mxCell id="kr1hZEKx9nepapMAvcio-26" style="edgeStyle=orthogonalEdgeStyle;rounded=0;orthogonalLoop=1;jettySize=auto;html=1;exitX=1;exitY=0.5;exitDx=0;exitDy=0;" edge="1" parent="1" source="kr1hZEKx9nepapMAvcio-12" target="kr1hZEKx9nepapMAvcio-24">
          <mxGeometry relative="1" as="geometry" />
        </mxCell>
        <mxCell id="kr1hZEKx9nepapMAvcio-12" value="&lt;font style=&quot;font-size: 24px;&quot;&gt;Cheaking for grace Marks&lt;/font&gt;" style="rhombus;whiteSpace=wrap;html=1;" vertex="1" parent="1">
          <mxGeometry x="565" y="880" width="190" height="170" as="geometry" />
        </mxCell>
        <mxCell id="kr1hZEKx9nepapMAvcio-22" style="edgeStyle=orthogonalEdgeStyle;rounded=0;orthogonalLoop=1;jettySize=auto;html=1;exitX=0.5;exitY=1;exitDx=0;exitDy=0;entryX=0.5;entryY=0;entryDx=0;entryDy=0;" edge="1" parent="1" source="kr1hZEKx9nepapMAvcio-15" target="kr1hZEKx9nepapMAvcio-21">
          <mxGeometry relative="1" as="geometry" />
        </mxCell>
        <mxCell id="kr1hZEKx9nepapMAvcio-15" value="&lt;font style=&quot;font-size: 24px;&quot;&gt;Print result as Pass&lt;/font&gt;" style="rounded=0;whiteSpace=wrap;html=1;" vertex="1" parent="1">
          <mxGeometry x="190" y="940" width="230" height="80" as="geometry" />
        </mxCell>
        <mxCell id="kr1hZEKx9nepapMAvcio-31" style="edgeStyle=orthogonalEdgeStyle;rounded=0;orthogonalLoop=1;jettySize=auto;html=1;exitX=0.5;exitY=1;exitDx=0;exitDy=0;entryX=1;entryY=0.5;entryDx=0;entryDy=0;" edge="1" parent="1" source="kr1hZEKx9nepapMAvcio-17" target="kr1hZEKx9nepapMAvcio-27">
          <mxGeometry relative="1" as="geometry" />
        </mxCell>
        <mxCell id="kr1hZEKx9nepapMAvcio-17" value="&lt;font style=&quot;font-size: 24px;&quot;&gt;Print result as Fail&lt;/font&gt;" style="rounded=0;whiteSpace=wrap;html=1;" vertex="1" parent="1">
          <mxGeometry x="925" y="940" width="230" height="80" as="geometry" />
        </mxCell>
        <mxCell id="kr1hZEKx9nepapMAvcio-28" style="edgeStyle=orthogonalEdgeStyle;rounded=0;orthogonalLoop=1;jettySize=auto;html=1;exitX=0.5;exitY=1;exitDx=0;exitDy=0;entryX=0;entryY=0.5;entryDx=0;entryDy=0;" edge="1" parent="1" source="kr1hZEKx9nepapMAvcio-21" target="kr1hZEKx9nepapMAvcio-27">
          <mxGeometry relative="1" as="geometry">
            <mxPoint x="630" y="1430" as="targetPoint" />
          </mxGeometry>
        </mxCell>
        <mxCell id="kr1hZEKx9nepapMAvcio-21" value="&lt;font style=&quot;font-size: 18px;&quot;&gt;Calculating the Percentage and Division&lt;/font&gt;" style="rounded=0;whiteSpace=wrap;html=1;" vertex="1" parent="1">
          <mxGeometry x="190" y="1110" width="230" height="60" as="geometry" />
        </mxCell>
        <mxCell id="kr1hZEKx9nepapMAvcio-29" style="edgeStyle=orthogonalEdgeStyle;rounded=0;orthogonalLoop=1;jettySize=auto;html=1;exitX=0.5;exitY=1;exitDx=0;exitDy=0;entryX=0;entryY=0;entryDx=0;entryDy=0;" edge="1" parent="1" source="kr1hZEKx9nepapMAvcio-23" target="kr1hZEKx9nepapMAvcio-27">
          <mxGeometry relative="1" as="geometry" />
        </mxCell>
        <mxCell id="kr1hZEKx9nepapMAvcio-23" value="&lt;font style=&quot;font-size: 18px;&quot;&gt;print the result as pass with Grace&lt;/font&gt;" style="rounded=0;whiteSpace=wrap;html=1;" vertex="1" parent="1">
          <mxGeometry x="470" y="1110" width="150" height="60" as="geometry" />
        </mxCell>
        <mxCell id="kr1hZEKx9nepapMAvcio-33" style="edgeStyle=orthogonalEdgeStyle;rounded=0;orthogonalLoop=1;jettySize=auto;html=1;exitX=0.5;exitY=1;exitDx=0;exitDy=0;entryX=1;entryY=0;entryDx=0;entryDy=0;" edge="1" parent="1" source="kr1hZEKx9nepapMAvcio-24" target="kr1hZEKx9nepapMAvcio-27">
          <mxGeometry relative="1" as="geometry" />
        </mxCell>
        <mxCell id="kr1hZEKx9nepapMAvcio-24" value="&lt;font style=&quot;font-size: 18px;&quot;&gt;print result as supplementary&lt;/font&gt;" style="rounded=0;whiteSpace=wrap;html=1;" vertex="1" parent="1">
          <mxGeometry x="730" y="1110" width="150" height="60" as="geometry" />
        </mxCell>
        <mxCell id="kr1hZEKx9nepapMAvcio-25" style="edgeStyle=orthogonalEdgeStyle;rounded=0;orthogonalLoop=1;jettySize=auto;html=1;exitX=0;exitY=0.5;exitDx=0;exitDy=0;entryX=0.339;entryY=-0.047;entryDx=0;entryDy=0;entryPerimeter=0;" edge="1" parent="1" source="kr1hZEKx9nepapMAvcio-12" target="kr1hZEKx9nepapMAvcio-23">
          <mxGeometry relative="1" as="geometry" />
        </mxCell>
        <mxCell id="kr1hZEKx9nepapMAvcio-27" value="&lt;font style=&quot;font-size: 24px;&quot;&gt;End&lt;/font&gt;" style="ellipse;whiteSpace=wrap;html=1;" vertex="1" parent="1">
          <mxGeometry x="640" y="1320" width="120" height="80" as="geometry" />
        </mxCell>
      </root>
    </mxGraphModel>
  </diagram>
</mxfile>
